<svg width="144" height="48" xmlns="http://www.w3.org/2000/svg"><title>download on the app store</title><g fill-rule="nonzero" fill="none"><path d="M132.161724 0H11.441616c-.44004 0-.8748 0-1.313676.0024-.36738.0024-.731832.009372-1.10274.01524a15.857712 15.857712 0 00-2.40468.212052 7.998108 7.998108 0 00-2.281056.7524 7.725348 7.725348 0 00-1.94238 1.414392A7.510128 7.510128 0 00.98322 4.341792a7.921428 7.921428 0 00-.75 2.283984 15.5916 15.5916 0 00-.21504 2.4024C.007044 9.396096.005868 9.76524 0 10.133208V37.87032c.005868.3726.007044.73356.01818 1.10628a15.590784 15.590784 0 00.21504 2.40228 7.905072 7.905072 0 00.75 2.28516 7.449336 7.449336 0 001.413864 1.93716 7.52934 7.52934 0 001.94238 1.41444 8.040983 8.040983 0 002.281056.75696 16.146169 16.146169 0 002.40468.21216c.370908.00816.73536.01284 1.10274.01284.438864.0024.87366.0024 1.313676.0024h120.720108c.43128 0 .86952 0 1.3008-.0024.36564 0 .74064-.00468 1.10628-.01284a15.934804 15.934804 0 002.4-.21216 8.16518 8.16518 0 002.28984-.75696 7.532908 7.532908 0 001.94064-1.41444 7.673784 7.673784 0 001.41792-1.93716 7.924935 7.924935 0 00.74292-2.28516 16.20769 16.20769 0 00.22272-2.40228c.00468-.37272.00468-.73368.00468-1.10628.00936-.43596.00936-.86952.00936-1.31256V11.443356c0-.439452 0-.875388-.00936-1.310148 0-.367968 0-.737112-.00468-1.10508a16.208487 16.208487 0 00-.22272-2.4024 7.94124 7.94124 0 00-.74292-2.283984c-.740731-1.443509-1.915316-2.618514-3.35856-3.35976a8.121053 8.121053 0 00-2.28984-.7524 15.652732 15.652732 0 00-2.4-.212112c-.36564-.005856-.74064-.012888-1.10628-.015228-.43128-.0024-.86952-.0024-1.3008-.0024V0z" fill="#A6A6A6"/><path d="M10.133796 46.95c-.365616 0-.7224-.00468-1.085148-.01284a15.224573 15.224573 0 01-2.242968-.19572 7.06057 7.06057 0 01-1.988088-.65748 6.486877 6.486877 0 01-1.6764-1.21992 6.384983 6.384983 0 01-1.224612-1.6758 6.866232 6.866232 0 01-.6516-1.98864 14.896212 14.896212 0 01-.1998-2.25c-.007608-.25308-.017568-1.09572-.017568-1.09572V10.133208s.010608-.829692.017628-1.073448a14.844468 14.844468 0 01.198636-2.246484 6.9066 6.9066 0 01.652152-1.99452 6.448188 6.448188 0 011.218168-1.67754 6.678516 6.678516 0 011.682808-1.226964 6.987708 6.987708 0 011.983984-.652728A15.103068 15.103068 0 019.0516 1.064652L10.134384 1.05h123.32226l1.09572.01524a14.861918 14.861918 0 012.23008.195108 7.125995 7.125995 0 012.00508.65742c1.245382.641815 2.258726 1.657228 2.898 2.903916a6.915207 6.915207 0 01.64224 1.978704 15.594046 15.594046 0 01.20856 2.264652c.00348.33984.00348.70488.00348 1.068168.00948.45.00948.878316.00948 1.310148V36.55776c0 .43596 0 .86136-.00948 1.29024 0 .39024 0 .74772-.00468 1.11564a15.2775 15.2775 0 01-.20508 2.2242 6.886803 6.886803 0 01-.648 2.004 6.57634 6.57634 0 01-1.21872 1.66284 6.495491 6.495491 0 01-1.67928 1.227 7.03402 7.03402 0 01-2.0016.65976 15.050605 15.050605 0 01-2.24304.19572c-.35148.00816-.71952.01284-1.07688.01284l-1.3008.0024L10.133796 46.95z" fill="#000"/><g fill="#FFF"><path d="M29.722656 24.360816c.026228-2.035765 1.093491-3.916193 2.827872-4.982472-1.099113-1.569729-2.874057-2.52929-4.789392-2.589216-2.015088-.211512-3.968628 1.205796-4.99548 1.205796-1.046724 0-2.627724-1.184796-4.3302-1.149768-2.240014.07237-4.277691 1.315075-5.367504 3.273444-2.3208 4.018104-.589692 9.923364 1.63344 13.171296 1.11228 1.59042 2.412216 3.36696 4.113156 3.30396 1.664472-.069036 2.28612-1.061376 4.29528-1.061376 1.990512 0 2.573748 1.061376 4.3092 1.02132 1.786056-.028992 2.911356-1.597488 3.984612-3.202968a13.1544 13.1544 0 001.822104-3.711012c-2.121292-.897202-3.500612-2.975779-3.503088-5.279004zM26.4447 14.653068c.973832-1.16905 1.453602-2.671665 1.337424-4.188744-1.487799.156265-2.862108.867336-3.849096 1.991532-.974605 1.10917-1.468338 2.560263-1.372452 4.033668 1.507748.015524 2.939323-.66134 3.884124-1.836456z"/><g><path d="M50.762724 32.56758h-5.68008l-1.364064 4.02774h-2.405856l5.38008-14.9016h2.4996l5.38008 14.9016H52.1256l-1.362876-4.02774zm-5.091804-1.858596h4.5024l-2.219532-6.536724h-.062112l-2.220756 6.536724zM66.191628 31.163676c0 3.376176-1.807032 5.545308-4.533984 5.545308-1.409538.073733-2.737245-.664547-3.418356-1.9008h-.0516v5.381256h-2.23008V25.730856h2.158632v1.807032h.041016c.71137-1.228502 2.04051-1.966465 3.459372-1.920708 2.757372.000012 4.575 2.179692 4.575 5.546496zm-2.292192 0c0-2.1996-1.136724-3.645708-2.871096-3.645708-1.703904 0-2.85 1.476564-2.85 3.645708 0 2.189064 1.146096 3.65508 2.85 3.65508 1.734384 0 2.871096-1.435548 2.871096-3.65508zM78.149436 31.163676c0 3.376176-1.807032 5.545308-4.533984 5.545308-1.409538.073733-2.737245-.664547-3.418356-1.9008h-.0516v5.381256h-2.23008V25.730856H70.074v1.807032h.041016c.711375-1.228502 2.04052-1.96646 3.459384-1.920696 2.757456 0 4.575036 2.17968 4.575036 5.546484zm-2.292192 0c0-2.1996-1.136724-3.645708-2.871096-3.645708-1.703904 0-2.85 1.476564-2.85 3.645708 0 2.189064 1.146096 3.65508 2.85 3.65508 1.734384 0 2.871108-1.435548 2.871108-3.65508h-.000012zM86.052564 32.443356c.16524 1.47774 1.6008 2.448 3.5625 2.448 1.879692 0 3.232032-.970308 3.232032-2.30274 0-1.156644-.815628-1.8492-2.746872-2.323824l-1.931244-.46524c-2.736324-.660936-4.006644-1.940628-4.006644-4.017192 0-2.571096 2.240628-4.337112 5.42226-4.337112 3.1488 0 5.30742 1.766016 5.38008 4.337112h-2.2512c-.13476-1.487112-1.364064-2.38476-3.160548-2.38476s-3.025776.908208-3.025776 2.23008c0 1.053516.78516 1.673436 2.705856 2.148l1.641792.403128c3.05742.723048 4.32774 1.9512 4.32774 4.130856 0 2.787888-2.220708 4.533984-5.75274 4.533984-3.304692 0-5.535936-1.70508-5.68008-4.4004l2.282844.000108zM100.015452 23.15976v2.571096h2.066016v1.766016h-2.066016v5.989452c0 .930468.413676 1.364064 1.321872 1.364064a6.969025 6.969025 0 00.733596-.0516v1.755468a6.124208 6.124208 0 01-1.238676.103128c-2.1996 0-3.05742-.826176-3.05742-2.933208v-6.227304h-1.57968v-1.766016H97.7748V23.15976h2.240652zM103.278 31.163676c0-3.418356 2.013276-5.566404 5.15274-5.566404 3.15 0 5.153904 2.148 5.153904 5.566404 0 3.42774-1.993356 5.566404-5.153904 5.566404-3.159432 0-5.15274-2.138676-5.15274-5.566404zm8.034372 0c0-2.34492-1.074612-3.728904-2.881644-3.728904-1.807032 0-2.880468 1.394532-2.880468 3.728904 0 2.354292 1.073436 3.72774 2.880468 3.72774s2.881596-1.373448 2.881596-3.72774h.000048zM115.423272 25.730856h2.126952v1.8492h.0516c.296611-1.190414 1.38736-2.009698 2.613276-1.962888a3.439393 3.439393 0 01.764064.083208v2.085936a3.117528 3.117528 0 00-1.002-.13476c-.655622-.026597-1.290119.23469-1.73689.715255-.446772.480566-.661182 1.132398-.586934 1.784345v6.444144h-2.23008l.000012-10.86444zM131.26116 33.404292c-.3 1.97226-2.220708 3.325776-4.678128 3.325776-3.160548 0-5.12226-2.11758-5.12226-5.51484 0-3.407808 1.97226-5.617968 5.028516-5.617968 3.005856 0 4.896096 2.06484 4.896096 5.358984v.764064h-7.673436v.13476c-.071643.808838.20765 1.609475.766836 2.198256.559186.58878 1.344369.908956 2.155824.879084 1.08221.1014 2.102524-.520035 2.508984-1.528128l2.117568.000012zm-7.538685-3.242568l5.431653-.000012c.04047-.726795-.224092-1.437524-.729948-1.960954-.505856-.52343-1.207139-.812102-1.934892-.796466-.73351-.004377-1.43838.28443-1.957937.802228-.519559.517798-.810755 1.221684-.808876 1.955204z"/></g></g><g fill="#FFF"><path d="M45.391428 10.4772c.946736-.067939 1.874043.292257 2.526686.981446.652642.68919.961829 1.634728.842458 2.576362 0 2.2875-1.236324 3.6024-3.369144 3.6024h-2.586324V10.4772h2.586324zm-1.474224 6.1476h1.35c.676586.040442 1.33538-.22613 1.793458-.725698.458079-.499569.666674-1.178949.567866-1.849502.091619-.66777-.11998-1.341545-.576923-1.83704-.456942-.495494-1.11141-.760856-1.784401-.723508h-1.35V16.6248zM50.016816 14.933208c-.092655-.968538.371764-1.905874 1.198483-2.418891.826719-.513018 1.8728-.513018 2.699518 0 .826719.513017 1.291138 1.450353 1.198483 2.418891.094418.969579-.369578 1.908732-1.19703 2.422854-.827451.514122-1.874973.514122-2.702425 0-.827451-.514122-1.291447-1.453275-1.197029-2.422854zm3.9996 0c0-1.171284-.526176-1.856244-1.4496-1.856244-.926952 0-1.4484.68496-1.4484 1.856256 0 1.180668.521484 1.860348 1.4484 1.860348.923448-.000012 1.449612-.684384 1.449612-1.86036h-.000012zM61.887912 17.6373h-1.106244l-1.116792-3.979692h-.084372L58.468392 17.6373h-1.095708l-1.489452-5.403516h1.081644l.967968 4.1232h.079692l1.110936-4.1232h1.023048l1.110936 4.1232h.084372l.963276-4.1232h1.066404zM64.624248 12.233784H65.6508v.858396h.079692c.277122-.632006.924675-1.018611 1.6125-.9627.53258-.040042 1.054471.164268 1.418317.555242.363846.390975.530163.926187.451991 1.454518v3.498h-1.066404v-3.230208c0-.868356-.37734-1.3002-1.166016-1.3002-.361241-.016825-.711816.124947-.959815.388148-.247998.263201-.368687.621581-.330425.981184V17.6373h-1.066404l.000012-5.403516zM70.912524 10.1244h1.066404v7.512888h-1.066404zM73.461348 14.933208c-.092584-.968601.371909-1.90596 1.198689-2.418986.82678-.513026 1.872914-.513026 2.699694 0 .82678.513025 1.291273 1.450385 1.198689 2.418986.094298.969613-.369783 1.90874-1.197275 2.42284-.827493.5141-1.875029.5141-2.702522 0s-1.291573-1.453227-1.197275-2.42284zm3.9996 0c0-1.171284-.526176-1.856244-1.4496-1.856244-.926952 0-1.4484.68496-1.4484 1.856256 0 1.180668.521484 1.860348 1.4484 1.860348.923436-.000012 1.449612-.684384 1.449612-1.86036h-.000012zM79.68108 16.109184c0-.97266.724224-1.533396 2.00976-1.613088l1.463676-.084372v-.466404c0-.570708-.37734-.892968-1.106244-.892968-.595308 0-1.007808.218556-1.126176.600588h-1.03242c.108984-.928128.982032-1.523436 2.207808-1.523436 1.354692 0 2.118756.6744 2.118756 1.815816v3.691992h-1.026564v-.759372h-.084372c-.348662.554552-.968696.878656-1.623048.8484-.458717.047714-.91621-.100847-1.259381-.408957-.34317-.30811-.539988-.747011-.541795-1.208199zm3.473436-.461724v-.451752l-1.319532.084372c-.744144.0498-1.081644.302928-1.081644.779292 0 .486324.421872.769332 1.002.769332.343423.034764.686252-.071334.950004-.294005.263753-.222672.425846-.54285.449172-.887239zM85.617792 14.933208c0-1.70742.87774-2.789064 2.242968-2.789064.689372-.031764 1.335033.337623 1.657032.948h.079692V10.1244h1.066404v7.512888h-1.021872v-.853716h-.084372c-.346339.605312-.999955.968456-1.696872.942768-1.374612.00006-2.24298-1.081608-2.24298-2.793132zm1.1016 0c0 1.146096.54024 1.835748 1.443756 1.835748.8988 0 1.454292-.6996 1.454292-1.831056 0-1.126176-.561324-1.835748-1.454292-1.835748-.897696 0-1.443792.694332-1.443792 1.831056h.000036zM95.076 14.933208c-.092655-.968538.371764-1.905874 1.198483-2.418891.826719-.513018 1.8728-.513018 2.699518 0 .826719.513017 1.291138 1.450353 1.198483 2.418891.094418.969579-.369578 1.908732-1.19703 2.422854-.827451.514122-1.874973.514122-2.702425 0-.827451-.514122-1.291447-1.453275-1.197029-2.422854zm3.9996 0c0-1.171284-.526176-1.856244-1.4496-1.856244-.926952 0-1.4484.68496-1.4484 1.856256 0 1.180668.521484 1.860348 1.4484 1.860348.923436-.000012 1.4496-.684384 1.4496-1.86036zM101.60334 12.233784h1.026564v.858396h.079692c.277122-.632006.924675-1.018611 1.6125-.9627.53258-.040042 1.054471.164268 1.418317.555242.363846.390975.530163.926187.451991 1.454518v3.498H105.126v-3.230208c0-.868356-.37734-1.3002-1.166016-1.3002-.361241-.016825-.711816.124947-.959815.388148-.247998.263201-.368687.621581-.330425.981184V17.6373h-1.066404v-5.403516zM112.218192 10.888476v1.36992h1.170708v.898248h-1.170708v2.778516c0 .566016.233208.813864.764064.813864a3.559884 3.559884 0 00.406644-.024612v.888276a3.4986 3.4986 0 01-.58008.054492c-1.185936 0-1.658208-.417192-1.658208-1.458984v-3.0516h-.857808v-.898248h.857808v-1.369872h1.06758zM114.845532 10.1244h1.057032v2.97774h.084372c.290433-.637538.94932-1.024635 1.6476-.967968.529556-.028815 1.044382.179992 1.404251.569549.35987.389556.527299.919286.456685 1.444903V17.6373H118.428v-3.2256c0-.863088-.402-1.3002-1.155468-1.3002-.371005-.030428-.736525.10445-.998841.368572-.262316.264123-.39468.63056-.361707 1.001348v3.155856h-1.066404l-.000048-7.512876zM125.7135 16.178316c-.299032 1.019255-1.285381 1.677808-2.341404 1.563276-.720523.01902-1.412986-.279635-1.893662-.816726-.480676-.53709-.70097-1.258319-.602434-1.972326-.09592-.715991.12355-1.438376.601549-1.980004.478-.541628 1.167493-.849204 1.889855-.843044 1.503516 0 2.410548 1.0272 2.410548 2.724v.372108h-3.815628v.05976c-.033766.400968.103177.797577.377149 1.092289.273972.294711.659553.46018 1.061915.455711.521726.062634 1.029591-.19616 1.285548-.65508l1.026564.000036zm-3.7512-1.741404h2.729292c.027184-.36672-.101762-.727866-.35506-.994441-.253298-.266575-.607391-.413788-.97502-.405359-.37261-.004681-.731318.141313-.994756.404867-.263438.263553-.409276.622325-.404432.994933h-.000024z"/></g></g></svg>