<svg width="163" height="48" xmlns="http://www.w3.org/2000/svg"><title>get app on google play</title><defs><linearGradient x1="91.495481%" y1="4.946151%" x2="-38.237085%" y2="71.878739%" id="a"><stop stop-color="#00A0FF" offset="0%"/><stop stop-color="#00A1FF" offset="1%"/><stop stop-color="#00BEFF" offset="26%"/><stop stop-color="#00D2FF" offset="51%"/><stop stop-color="#00DFFF" offset="76%"/><stop stop-color="#00E3FF" offset="100%"/></linearGradient><linearGradient x1="107.684729%" y1="50%" x2="-130.640394%" y2="50%" id="b"><stop stop-color="#FFE000" offset="0%"/><stop stop-color="#FFBD00" offset="41%"/><stop stop-color="orange" offset="78%"/><stop stop-color="#FF9C00" offset="100%"/></linearGradient><linearGradient x1="86.270983%" y1="17.871098%" x2="-50.179856%" y2="194.639567%" id="c"><stop stop-color="#FF3A44" offset="0%"/><stop stop-color="#C31162" offset="100%"/></linearGradient><linearGradient x1="-18.82494%" y1="-54.029709%" x2="42.086331%" y2="24.928003%" id="d"><stop stop-color="#32A071" offset="0%"/><stop stop-color="#2DA771" offset="7%"/><stop stop-color="#15CF74" offset="48%"/><stop stop-color="#06E775" offset="80%"/><stop stop-color="#00F076" offset="100%"/></linearGradient></defs><g fill="none" fill-rule="evenodd"><g fill-rule="nonzero"><path d="M11.441616 0c-.44004 0-.8748 0-1.313676.0024-.36738.0024-.731832.009372-1.10274.01524a15.857712 15.857712 0 00-2.40468.212052 7.998108 7.998108 0 00-2.281056.7524 7.725348 7.725348 0 00-1.94238 1.414392A7.510128 7.510128 0 00.98322 4.341792a7.921428 7.921428 0 00-.75 2.283984 15.5916 15.5916 0 00-.21504 2.4024C.007044 9.396096.005868 9.76524 0 10.133208V37.87032c.005868.3726.007044.73356.01818 1.10628a15.590784 15.590784 0 00.21504 2.40228 7.905072 7.905072 0 00.75 2.28516 7.449336 7.449336 0 001.413864 1.93716 7.52934 7.52934 0 001.94238 1.41444 8.040983 8.040983 0 002.281056.75696 16.146169 16.146169 0 002.40468.21216c.370908.00816.73536.01284 1.10274.01284.438864.0024.87366.0024 1.313676.0024h139.920108c.43128 0 .86952 0 1.3008-.0024.36564 0 .74064-.00468 1.10628-.01284a15.934804 15.934804 0 002.4-.21216 8.16518 8.16518 0 002.28984-.75696 7.532908 7.532908 0 001.94064-1.41444 7.673784 7.673784 0 001.41792-1.93716 7.924935 7.924935 0 00.74292-2.28516 16.20769 16.20769 0 00.22272-2.40228c.00468-.37272.00468-.73368.00468-1.10628.00936-.43596.00936-.86952.00936-1.31256V11.443356c0-.439452 0-.875388-.00936-1.310148 0-.367968 0-.737112-.00468-1.10508a16.208487 16.208487 0 00-.22272-2.4024 7.94124 7.94124 0 00-.74292-2.283984c-.740731-1.443509-1.915316-2.618514-3.35856-3.35976a8.121053 8.121053 0 00-2.28984-.7524 15.652732 15.652732 0 00-2.4-.212112c-.36564-.005856-.74064-.012888-1.10628-.015228-.43128-.0024-.86952-.0024-1.3008-.0024L11.441616 0z" fill="#A6A6A6"/><path d="M10.133796 46.95c-.365616 0-.7224-.00468-1.085148-.01284a15.224573 15.224573 0 01-2.242968-.19572 7.06057 7.06057 0 01-1.988088-.65748 6.486877 6.486877 0 01-1.6764-1.21992 6.384983 6.384983 0 01-1.224612-1.6758 6.866232 6.866232 0 01-.6516-1.98864 14.896212 14.896212 0 01-.1998-2.25c-.007608-.25308-.017568-1.09572-.017568-1.09572V10.133208s.010608-.829692.017628-1.073448a14.844468 14.844468 0 01.198636-2.246484 6.9066 6.9066 0 01.652152-1.99452 6.448188 6.448188 0 011.218168-1.67754 6.678516 6.678516 0 011.682808-1.226964 6.987708 6.987708 0 011.983984-.652728A15.103068 15.103068 0 019.0516 1.064652L10.134384 1.05h142.52226l1.09572.01524a14.861918 14.861918 0 012.23008.195108 7.125995 7.125995 0 012.00508.65742c1.245382.641815 2.258726 1.657228 2.898 2.903916a6.915207 6.915207 0 01.64224 1.978704 15.594046 15.594046 0 01.20856 2.264652c.00348.33984.00348.70488.00348 1.068168.00948.45.00948.878316.00948 1.310148V36.55776c0 .43596 0 .86136-.00948 1.29024 0 .39024 0 .74772-.00468 1.11564a15.2775 15.2775 0 01-.20508 2.2242 6.886803 6.886803 0 01-.648 2.004 6.57634 6.57634 0 01-1.21872 1.66284 6.495491 6.495491 0 01-1.67928 1.227 7.03402 7.03402 0 01-2.0016.65976 15.050605 15.050605 0 01-2.24304.19572c-.35148.00816-.71952.01284-1.07688.01284l-1.3008.0024L10.133796 46.95z" fill="#000"/></g><path d="M56.904 12.288c.03981.889254-.285292 1.75619-.9 2.4-.689494.711849-1.649781 1.095963-2.64 1.056-.995305.022182-1.95536-.368791-2.652-1.08-1.454316-1.48761-1.454316-3.86439 0-5.352 1.093093-1.068102 2.720542-1.375614 4.128-.78a3.048 3.048 0 011.128.804l-.636.636c-.483175-.58206-1.212495-.902248-1.968-.864-1.294003.00895-2.42316.879858-2.760499 2.129149-.33734 1.24929.199974 2.570187 1.313596 3.229256 1.113621.659069 2.53009.494469 3.462903-.402405.36654-.401877.57908-.920475.6-1.464h-2.616v-.864h3.492a4.499989 4.499989 0 01.048.552zM62.4 9.288h-3.24v2.28h2.952v.864H59.16v2.28h3.24v.888h-4.176V8.4H62.4zM66.336 15.6h-.924V9.288h-2.016V8.4H68.4v.888h-2.064zM71.928 15.6V8.4h.924v7.2zM76.956 15.6h-.924V9.288h-2.016V8.4h4.944v.888h-2.004zM88.332 14.664c-.699973.700545-1.649684 1.094155-2.64 1.094155-.990316 0-1.940027-.39361-2.64-1.094155-1.408136-1.496883-1.408136-3.831117 0-5.328.68579-.72123 1.64511-1.11804 2.64-1.092.992949-.015707 1.948283.379454 2.64 1.092.697102.709094 1.077952 1.669875 1.056 2.664.031828.995873-.350506 1.9604-1.056 2.664zm-4.596-.6c.51636.52327 1.220855.817827 1.956.817827.735145 0 1.43964-.294558 1.956-.817827 1.073583-1.166592 1.073583-2.961408 0-4.128-.51636-.52327-1.220855-.817827-1.956-.817827-.735145 0-1.43964.294558-1.956.817827-1.073583 1.166592-1.073583 2.961408 0 4.128zM90.696 15.6V8.4h1.116l3.504 5.604h0V8.4h.924v7.2h-.96l-3.66-5.868h0V15.6z" stroke="#FFF" stroke-width=".2" fill="#FFF" fill-rule="nonzero"/><path d="M81.768 26.1c-2.823268.006635-5.106602 2.300722-5.099972 5.12399.00663 2.823269 2.300713 5.106607 5.123981 5.099982C84.615278 36.317347 86.89862 34.023268 86.892 31.2c.019768-1.362751-.514522-2.675148-1.480494-3.636596-.965972-.961447-2.280862-1.48957-3.643506-1.463404zm0 8.196c-1.268127.088686-2.461592-.606824-3.009574-1.753875-.547982-1.147052-.339103-2.512506.526733-3.44328.865836-.930773 2.212646-1.237686 3.396266-.773945 1.18362.46374 1.963478 1.60388 1.966575 2.8751.039051.795206-.24476 1.572471-.787032 2.155413-.54227.58294-1.297017.922127-2.092968.940587zM70.584 26.1c-2.823268.006635-5.106602 2.300722-5.099972 5.12399.00663 2.823269 2.300713 5.106607 5.123981 5.099982C73.431277 36.317347 75.71462 34.023268 75.708 31.2c.019768-1.362751-.514522-2.675148-1.480494-3.636596-.965972-.961447-2.280862-1.48957-3.643506-1.463404zm0 8.196c-1.268127.088686-2.461593-.606824-3.009574-1.753875-.547982-1.147052-.339103-2.512506.526733-3.44328.865836-.930773 2.212646-1.237686 3.396266-.773945 1.18362.46374 1.963478 1.60388 1.966575 2.8751.039051.795206-.24476 1.572471-.787032 2.155413-.54227.58294-1.297017.922127-2.092968.940587zm-13.296-6.624v2.16h5.184c-.081284 1.017365-.504186 1.977353-1.2 2.724-1.051618 1.071435-2.508033 1.647024-4.008 1.584-3.18116 0-5.76-2.57884-5.76-5.76 0-3.18116 2.57884-5.76 5.76-5.76 1.464537-.02178 2.878674.53439 3.936 1.548l1.524-1.524c-1.444823-1.429015-3.404114-2.216191-5.436-2.184-2.905247-.113065-5.639528 1.372406-7.125775 3.871268-1.486247 2.498863-1.486247 5.610601 0 8.109463 1.486247 2.498863 4.220528 3.984334 7.125775 3.871269 2.076238.082926 4.089057-.724822 5.532-2.22 1.260142-1.384308 1.931596-3.20498 1.872-5.076a7.523996 7.523996 0 00-.108-1.344h-7.296zm54.372 1.68c-.640704-1.884948-2.378487-3.178736-4.368-3.252-1.326764-.002594-2.595426.54409-3.504745 1.51024-.909318.966151-1.37818 2.265588-1.295255 3.58976-.021071 2.249783 1.441348 4.244998 3.593112 4.902174 2.151764.657175 4.479387-.180514 5.718888-2.058174l-1.74-1.2c-.5278.879713-1.48215 1.413967-2.508 1.404-1.064598.043956-2.046705-.571053-2.472-1.548l6.828-2.82-.252-.528zm-6.96 1.704c-.049132-.752986.206864-1.494059.710283-2.056172.503419-.562114 1.21189-.897957 1.965717-.931828.790519-.048253 1.532939.382067 1.884 1.092l-4.56 1.896zM99.156 36h2.244V21h-2.244v15zm-3.672-8.76H95.4c-.678352-.772551-1.659953-1.210766-2.688-1.2-2.723824.132086-4.864396 2.378975-4.864396 5.106 0 2.727024 2.140572 4.973914 4.864396 5.106 1.030077.020662 2.01566-.41933 2.688-1.2h.084v.732c0 1.956-1.044 3-2.724 3-1.147782-.025215-2.166781-.740884-2.58-1.812l-1.944.804c.73578 1.847987 2.535102 3.050718 4.524 3.024 2.628 0 4.8-1.548 4.8-5.316V26.4h-2.076v.84zm-2.58 7.056c-1.631896-.101745-2.903345-1.454935-2.903345-3.09 0-1.635065 1.271449-2.988255 2.903345-3.09.776425.033506 1.506013.380665 2.02176.962011.515746.581346.773493 1.347104.71424 2.121989.066162.77766-.188811 1.548517-.705636 2.133345-.516824.584828-1.250472.932672-2.030364.962655zM122.172 21h-5.376v15h2.244v-5.688h3.132c1.743221.125237 3.410369-.73379 4.320156-2.226032.909787-1.492244.909787-3.367692 0-4.859936C125.582369 21.73379 123.915221 20.874763 122.172 21zm0 7.2h-3.132v-5.112h3.18c.917458 0 1.765224.489458 2.223953 1.284.458729.794542.458729 1.773458 0 2.568-.458729.794542-1.306495 1.284-2.223953 1.284l-.048-.024zm13.848-2.148c-1.670294-.10299-3.241557.798245-3.996 2.292l1.98.828c.408724-.736892 1.212482-1.164623 2.052-1.092.575434-.067206 1.153744.099564 1.605034.462852.45129.363288.737724.892638.794966 1.469148v.144a5.015999 5.015999 0 00-2.34-.576c-2.136 0-4.32 1.2-4.32 3.384.042683.937898.46381 1.818414 1.167149 2.440337.703339.621923 1.628782.932105 2.564851.859663 1.146494.063417 2.238133-.496162 2.856-1.464h.072V36h2.16v-5.772c0-2.628-1.992-4.152-4.548-4.152l-.048-.024zm-.276 8.22c-.732 0-1.752-.372-1.752-1.272 0-1.2 1.272-1.608 2.4-1.608a3.984001 3.984001 0 012.04.504c-.155811 1.347725-1.283568 2.372958-2.64 2.4l-.048-.024zm12.744-7.872l-2.568 6.504h-.072l-2.664-6.504h-2.4l3.996 9.096-2.28 5.052h2.34l6.144-14.148h-2.496zm-20.16 9.6h2.232V21h-2.232v15z" fill="#FFF" fill-rule="nonzero"/><path d="M12.528 9.048c-.395437.467543-.597205 1.068555-.564 1.68v26.544c-.040831.612455.161872 1.216253.564 1.68l.084.096L27.48 24.18v-.36L12.612 8.964l-.084.084z" fill="url(#a)" fill-rule="nonzero"/><path d="M32.4 29.136l-4.92-4.956v-.36l4.92-4.956.108.072 5.892 3.336c1.68.948 1.68 2.508 0 3.468l-5.868 3.336-.132.06z" fill="url(#b)" fill-rule="nonzero"/><path d="M32.544 29.064L27.48 24 12.528 38.952c.69964.622765 1.743888.658078 2.484.084l17.532-9.972" fill="url(#c)" fill-rule="nonzero"/><path d="M32.544 18.936l-17.532-9.96c-.735643-.582334-1.783323-.551967-2.484.072L27.48 24l5.064-5.064z" fill="url(#d)" fill-rule="nonzero"/><path d="M32.4 28.956l-17.388 9.9c-.710215.536015-1.689785.536015-2.4 0l-.084.084.084.096c.710215.536015 1.689785.536015 2.4 0l17.532-9.972-.144-.108z" fill="#000" fill-rule="nonzero" opacity=".2"/><path d="M12.528 38.784c-.385447-.475968-.574342-1.08129-.528-1.692v.18c-.040831.612455.161872 1.216253.564 1.68l.084-.084-.12-.084zM38.4 25.56l-6 3.396.108.108 5.892-3.336c.708475-.29957 1.196472-.96251 1.272-1.728-.15215.69252-.624286 1.271555-1.272 1.56z" fill="#000" fill-rule="nonzero" opacity=".12"/><path d="M15.012 9.144L38.4 22.44c.647714.288445 1.11985.86748 1.272 1.56-.075528-.76549-.563525-1.42843-1.272-1.728L15.012 8.976c-1.668-.96-3.048-.168-3.048 1.752v.18c.036-1.92 1.38-2.712 3.048-1.764z" fill="#FFF" fill-rule="nonzero" opacity=".25"/></g></svg>