<svg height="24" viewBox="0 0 24 24" width="24" xmlns="http://www.w3.org/2000/svg" xmlns:xlink="http://www.w3.org/1999/xlink"><filter id="a" color-interpolation-filters="auto"><feColorMatrix in="SourceGraphic" values="0 0 0 0 1.000000 0 0 0 0 1.000000 0 0 0 0 1.000000 0 0 0 1.000000 0"/></filter><g fill="none" fill-rule="evenodd" filter="url(#a)"><path d="m12.0003751 0c-6.62736394 0-12.0003751 5.37192511-12.0003751 12.0003751 0 4.914325 2.95433091 9.1347482 7.18327029 10.989904-.03375949-.8386834-.00600168-1.8446535.20855866-2.7546025.23106499-.9759635 1.54393423-6.5406808 1.54393423-6.5406808s-.38410803-.7659176-.38410803-1.897165c0-1.7771388 1.03229033-3.10567939 2.31590135-3.10567939 1.0908068 0 1.6182051.81842903 1.6182051 1.80039379 0 1.09674-.7006971 2.738099-1.0592979 4.2579315-.3008346 1.2722783.6391798 2.3105054 1.8920321 2.3105054 2.2738896 0 3.8050702-2.9188885 3.8050702-6.3793955 0-2.62932517-1.7712482-4.5970056-4.9926542-4.5970056-3.64002374 0-5.90716137 2.71334355-5.90716137 5.7455068 0 1.0457288.30833672 1.7831401.79072239 2.354015.22281267.2625574.25357132.3668302.17179832.6683962-.05551562.2220486-.18755275.7524146-.24306836.9624605-.08027258.3053168-.32559158.4133404-.60091901.3000657-1.67672158-.6826494-2.45694102-2.5190511-2.45694102-4.5835027 0-3.40799548 2.87405833-7.49638981 8.57716235-7.49638981 4.5807883 0 7.598137 3.31572531 7.598137 6.87450381 0 4.7072797-2.6189866 8.224049-6.4765716 8.224049-1.2963646 0-2.5154575-.7006533-2.9310743-1.4943269 0 0-.69769627 2.7651049-.84398742 3.2977214-.25507174.923452-.75321184 1.8499047-1.2078397 2.5708124 1.07730299.3188197 2.21762372.4921076 3.39920602.4921076 6.627364 0 11.9996249-5.3711749 11.9996249-11.9996249 0-6.62844999-5.3722609-12.0003751-11.9996249-12.0003751z" fill="#000" fill-rule="nonzero"/></g></svg>