<svg width="24" height="24" viewBox="0 0 24 24" xmlns="http://www.w3.org/2000/svg"><path d="M12.325 23C6.63 23 2 18.29 2 12.5c0-1.116.172-2.19.49-3.2.166.24.352.454.53.645.574.613 1.207 1.175 1.886 1.668.05.036.122.09.16.124.024.115.014.282.004.472-.026.402-.06.955.24 1.536.195.38.468.67.71.927.234.25.436.466.492.676.042.148.024.37.006.6-.025.32-.053.685.037 1.076.122.525.415.915.67 1.26.165.216.318.42.384.607.05.145.07.34.093.546.022.206.047.44.108.682.182.723.773 1.417 1.57 1.417.042 0 .086-.003.13-.007.825-.077 1.39-.826 1.478-1.956.013-.183.05-.666.142-.772.028-.012.098-.028.15-.042.217-.053.546-.136.82-.42.5-.522.363-1.177.28-1.57-.025-.117-.053-.25-.05-.32.002-.186.38-.512.52-.636l1.417-1.23c.55-.473.757-1.297.512-2.05-.175-.537-.56-1.022-1.118-1.398-.685-.466-1.427-.585-2.035-.328-.206.087-.372.207-.506.303-.04.03-.094.068-.137.097-.02-.023-.043-.055-.065-.095-.05-.095-.097-.218-.146-.35-.063-.17-.135-.367-.243-.564-.574-1.05-1.51-1.166-2.195-1.252-.117-.013-.228-.026-.338-.045-.576-.09-1.163-.347-1.612-.7.165-.062.366-.11.475-.104.078.004.17.014.268.027.28.03.627.072 1.002-.035.377-.107.656-.33.88-.507.064-.052.125-.098.18-.14.106-.073.31-.09.526-.11.537-.045 1.656-.14 1.815-1.722.078-.783-.202-1.483-.428-2.046-.19-.47-.37-.935-.53-1.416.57-.097 1.156-.15 1.753-.15 1.283 0 2.51.24 3.643.675l-.1.102c-.346.343-.702.698-.947 1.02-.103.137-.276.366-.327.693-.086.56.24.986.382 1.17.207.272.555.726 1.13.873.13.03.253.045.372.045.433 0 .803-.184 1.088-.328.165-.08.335-.167.436-.175.1-.01.27.05.435.104.242.08.516.172.838.184.426.015.802-.142 1.1-.437.684.867 1.237 1.845 1.627 2.904-.055.003-.11.003-.162.004-.15.002-.323.003-.51.02-.434.033-.772-.095-1.2-.257-.295-.11-.63-.236-1.02-.315-1.056-.214-2.138.37-2.757 1.49-.18.324-1.043 2-.31 3.03.276.386.645.61.94.792.398.24.81.492 1.274.682.1.04.197.078.292.113.282.105.574.215.678.36.06.08.12.265.08.676-.03.275-.138.575-.252.892-.282.782-.67 1.853.236 2.906.163.188.346.348.545.478C17.948 21.732 15.28 23 12.325 23m8.16-19.485C18.22 1.25 15.205 0 12 0S5.78 1.25 3.514 3.514C1.248 5.782 0 8.795 0 12c0 3.205 1.248 6.218 3.514 8.485C5.78 22.75 8.794 24 12 24s6.22-1.25 8.486-3.515C22.752 18.218 24 15.205 24 12c0-3.205-1.248-6.218-3.514-8.485" fill="#FFF" fill-rule="evenodd"/></svg>