<svg width="24" height="24" viewBox="0 0 17 17" xmlns="http://www.w3.org/2000/svg"><g fill="#fff" fill-rule="evenodd"><path d="M8.5 0C6.19 0 5.902.01 4.996.05 4.09.093 3.473.237 2.932.447c-.558.217-1.033.508-1.505.98-.473.473-.764.948-.98 1.507C.236 3.473.09 4.09.05 4.995.01 5.902 0 6.19 0 8.5s.01 2.598.05 3.504c.042.905.186 1.523.396 2.064.217.558.508 1.033.98 1.505.473.473.948.764 1.506.98.54.21 1.16.355 2.064.396.906.04 1.195.05 3.504.05s2.598-.01 3.504-.05c.905-.042 1.523-.186 2.064-.396.558-.217 1.033-.508 1.505-.98.473-.473.764-.948.98-1.506.21-.54.355-1.16.396-2.064.04-.906.05-1.195.05-3.504s-.01-2.598-.05-3.504c-.042-.905-.186-1.523-.396-2.064-.217-.558-.508-1.033-.98-1.505-.473-.473-.948-.764-1.506-.98-.54-.21-1.16-.355-2.064-.396C11.098.01 10.81 0 8.5 0zm0 1.53c2.27 0 2.538.01 3.435.05.83.04 1.278.177 1.578.294.397.154.68.338.977.636.298.297.482.58.636.977.117.3.255.75.293 1.578.04.897.05 1.165.05 3.435s-.01 2.538-.05 3.435c-.04.83-.177 1.278-.294 1.578-.154.397-.338.68-.636.977-.297.298-.58.482-.977.636-.3.117-.75.255-1.578.293-.897.04-1.165.05-3.435.05s-2.538-.01-3.435-.05c-.83-.04-1.278-.177-1.578-.294-.397-.154-.68-.338-.977-.636-.298-.297-.482-.58-.636-.977-.117-.3-.255-.75-.293-1.578-.04-.897-.05-1.165-.05-3.435s.01-2.538.05-3.435c.04-.83.177-1.278.294-1.578.154-.397.338-.68.636-.977.297-.298.58-.482.977-.636.3-.117.75-.255 1.578-.293.897-.04 1.165-.05 3.435-.05z"/><path d="M8.615 11.448c-1.565 0-2.834-1.268-2.834-2.833 0-1.564 1.27-2.833 2.835-2.833s2.833 1.27 2.833 2.833c0 1.565-1.268 2.833-2.833 2.833m0-7.198c-2.41 0-4.365 1.954-4.365 4.365 0 2.41 1.954 4.365 4.365 4.365 2.41 0 4.365-1.954 4.365-4.365 0-2.41-1.954-4.365-4.365-4.365m5.112-.043c0 .564-.456 1.02-1.02 1.02-.563 0-1.02-.456-1.02-1.02 0-.563.457-1.02 1.02-1.02.564 0 1.02.457 1.02 1.02"/></g></svg>