<svg height="24" viewBox="0 0 24 24" width="24" xmlns="http://www.w3.org/2000/svg"><path fill="#ffffff" d="m6 9v1.5c0 3.3137085 2.6862915 6 6 6s6-2.6862915 6-6v-1.5h3v1.5c0 4.4592353-3.243053 8.1610149-7.4992578 8.8754378l-.0007422 1.6245622h4.5v3h-12v-3h4.5l.0002546-1.624395c-4.17197338-.6998011-7.37073874-4.2698415-7.49641749-8.6102427l-.00383711-.2653623v-1.5zm6-9c2.4852814 0 4.5 2.01471863 4.5 4.5v6c0 2.4852814-2.0147186 4.5-4.5 4.5-2.48528137 0-4.5-2.0147186-4.5-4.5v-6c0-2.48528137 2.01471863-4.5 4.5-4.5z" fill-rule="evenodd"/></svg>