<svg height="24" viewBox="0 0 24 24" width="24" xmlns="http://www.w3.org/2000/svg"><path d="m24.0001 4.2496c-.8824964.38157895-1.8325308.63888889-2.8275905.75438596 1.0175724-.59356725 1.7980114-1.53216374 2.1642174-2.65204678-.9515353.5497076-2.0036271.94883041-3.1277594 1.1622807-.896004-.93128655-2.1762241-1.51461988-3.5930211-1.51461988-2.7180289 0-4.922769 2.14912281-4.922769 4.79678363 0 .37573099.0420236.74122807.1260709 1.09210526-4.09130139-.2002924-7.71884188-2.10818714-10.14870868-5.01169591-.42323807.71052632-.66637483 1.53362573-.66637483 2.41374269 0 1.6622807.8689888 3.13011696 2.19123256 3.99122807-.80745419-.02339181-1.56688137-.24122807-2.23175536-.59795321v.05847953c0 2.32456144 1.69745482 4.26315794 3.95172285 4.70321634-.41423301.1125731-.84797699.1681287-1.29823026.1681287-.31817897 0-.62735288-.0292398-.92602088-.0847953.62585204 1.9049707 2.44337439 3.2923976 4.5985867 3.3289473-1.68544806 1.2880117-3.80914264 2.0540936-6.11443937 2.0540936-.39772372 0-.79094491-.0219298-1.17516103-.0657895 2.17922581 1.3581872 4.76668126 2.1535088 7.54774561 2.1535088 9.05759489 0 14.00887999-7.3070175 14.00887999-13.64619883 0-.20906433-.0045025-.41666667-.0135076-.62134503.963542-.6754386 1.7980114-1.52046784 2.456882-2.48245614" fill="#fff" fill-rule="evenodd"/></svg>